<svg width="24" height="24" viewBox="0 0 24 24" fill="none" xmlns="http://www.w3.org/2000/svg">
<path d="M3.36667 4.39333L3.10667 4.13333C2.84667 3.87333 2.42667 3.88 2.17333 4.13333L2.16667 4.14C1.90667 4.4 1.90667 4.82 2.16667 5.07333L2.42667 5.33333C2.68667 5.59333 3.1 5.59333 3.36 5.33333L3.36667 5.32667C3.62667 5.07333 3.62667 4.64667 3.36667 4.39333Z" fill="white"/>
<path d="M1.34 8.63333H0.66C0.293333 8.63333 0 8.92667 0 9.29333V9.3C0 9.66667 0.293333 9.96 0.66 9.96H1.33333C1.70667 9.96667 2 9.67333 2 9.30667V9.3C2 8.92667 1.70667 8.63333 1.34 8.63333Z" fill="white"/>
<path d="M7.34 2H7.33333C6.96 2 6.66667 2.29333 6.66667 2.66V3.3C6.66667 3.66667 6.96 3.96 7.32667 3.96H7.33333C7.70667 3.96667 8 3.67333 8 3.30667V2.66C8 2.29333 7.70667 2 7.34 2Z" fill="white"/>
<path d="M12.5 4.14C12.24 3.88 11.82 3.88 11.56 4.13333L11.3 4.39333C11.04 4.65333 11.04 5.07333 11.3 5.32667L11.3067 5.33333C11.5667 5.59333 11.9867 5.59333 12.24 5.33333L12.5 5.07333C12.76 4.81333 12.76 4.4 12.5 4.14Z" fill="white"/>
<path d="M7.33333 5.3C5.12667 5.3 3.33333 7.09333 3.33333 9.3C3.33333 10.7304 4.08683 11.9871 5.21798 12.6942C5.75923 11.1263 7.24809 10 9 10C9.06894 10 9.13748 10.0017 9.20557 10.0052C9.49435 8.98028 10.0727 8.07673 10.8468 7.38847C10.1679 6.14492 8.84799 5.3 7.33333 5.3Z" fill="white"/>
<path d="M2.16667 14.46C2.42667 14.72 2.84667 14.72 3.10667 14.46L3.36667 14.2C3.62667 13.94 3.62 13.52 3.36667 13.2667L3.36 13.26C3.1 13 2.68 13 2.42 13.26L2.16 13.52C1.90667 13.7867 1.90667 14.2 2.16667 14.46Z" fill="white"/>
<path d="M7 21H20C22.2091 21 24 19.2091 24 17C24 15.1238 22.7083 13.5494 20.9657 13.1174C20.9884 12.9147 21 12.7087 21 12.5C21 9.46243 18.5376 7 15.5 7C12.9806 7 10.8568 8.69403 10.2056 11.0052C10.1375 11.0017 10.0689 11 10 11C7.79086 11 6 12.7909 6 15C6 15.0568 6.00118 15.1133 6.00352 15.1695C4.83649 15.5803 4 16.6925 4 18C4 19.6569 5.34315 21 7 21Z" fill="white"/>
</svg>
