<svg width="24" height="24" viewBox="0 0 24 24" fill="none" xmlns="http://www.w3.org/2000/svg">
<g clip-path="url(#clip0_7_1642)">
<path d="M7.33333 0H7.34C7.70667 0 8 0.293333 8 0.66V1.30667C8 1.67333 7.70667 1.96667 7.33333 1.96H7.32667C6.96 1.96 6.66667 1.66667 6.66667 1.3V0.66C6.66667 0.293333 6.96 0 7.33333 0Z" fill="white"/>
<path d="M3.36667 2.39333L3.10667 2.13333C2.84667 1.87333 2.42667 1.88 2.17333 2.13333L2.16667 2.14C1.90667 2.4 1.90667 2.82 2.16667 3.07333L2.42667 3.33333C2.68667 3.59333 3.1 3.59333 3.36 3.33333L3.36667 3.32667C3.62667 3.07333 3.62667 2.64667 3.36667 2.39333Z" fill="white"/>
<path d="M1.34 6.63333H0.66C0.293333 6.63333 0 6.92667 0 7.29333V7.3C0 7.66667 0.293333 7.96 0.66 7.96H1.33333C1.70667 7.96667 2 7.67333 2 7.30667V7.3C2 6.92667 1.70667 6.63333 1.34 6.63333Z" fill="white"/>
<path d="M12.5 2.14C12.24 1.88 11.82 1.88 11.56 2.13333L11.3 2.39333C11.04 2.65333 11.04 3.07333 11.3 3.32667L11.3067 3.33333C11.5667 3.59333 11.9867 3.59333 12.24 3.33333L12.5 3.07333C12.76 2.81333 12.76 2.4 12.5 2.14Z" fill="white"/>
<path d="M3.33333 7.3C3.33333 5.09333 5.12667 3.3 7.33333 3.3C8.84799 3.3 10.1679 4.14492 10.8468 5.38847C10.0727 6.07673 9.49435 6.98028 9.20557 8.00519C9.13748 8.00175 9.06894 8 9 8C7.24809 8 5.75923 9.12627 5.21798 10.6942C4.08683 9.98706 3.33333 8.73036 3.33333 7.3Z" fill="white"/>
<path d="M2.16667 12.46C2.42667 12.72 2.84667 12.72 3.10667 12.46L3.36667 12.2C3.62667 11.94 3.62 11.52 3.36667 11.2667L3.36 11.26C3.1 11 2.68 11 2.42 11.26L2.16 11.52C1.90667 11.7867 1.90667 12.2 2.16667 12.46Z" fill="white"/>
<path d="M20 19H7C5.34315 19 4 17.6569 4 16C4 14.6925 4.83649 13.5803 6.00352 13.1695C6.00118 13.1133 6 13.0568 6 13C6 10.7909 7.79086 9 10 9C10.0689 9 10.1375 9.00175 10.2056 9.00519C10.8568 6.69403 12.9806 5 15.5 5C18.5376 5 21 7.46243 21 10.5C21 10.7087 20.9884 10.9147 20.9657 11.1174C22.7083 11.5494 24 13.1238 24 15C24 17.2091 22.2091 19 20 19Z" fill="white"/>
<path d="M11.191 20H9.80903C9.43733 20 9.19559 20.3912 9.36181 20.7236L10.5 23L11.6382 20.7236C11.8044 20.3912 11.5627 20 11.191 20Z" fill="white"/>
<path d="M12.2081 22.3757L12.8919 20.3243C12.9565 20.1306 13.1377 20 13.3419 20C13.6657 20 13.8943 20.3172 13.7919 20.6243L13.1081 22.6757C13.0436 22.8694 12.8623 23 12.6581 23C12.3344 23 12.1057 22.6828 12.2081 22.3757Z" fill="white"/>
<path d="M14.2081 22.3757L14.8919 20.3243C14.9565 20.1306 15.1377 20 15.3419 20C15.6657 20 15.8943 20.3172 15.7919 20.6243L15.1081 22.6757C15.0436 22.8694 14.8623 23 14.6581 23C14.3344 23 14.1057 22.6828 14.2081 22.3757Z" fill="white"/>
<path d="M16.8919 20.3243L16.2081 22.3757C16.1057 22.6828 16.3344 23 16.6581 23C16.8623 23 17.0436 22.8694 17.1081 22.6757L17.7919 20.6243C17.8943 20.3172 17.6657 20 17.3419 20C17.1377 20 16.9565 20.1306 16.8919 20.3243Z" fill="white"/>
</g>
<defs>
<clipPath id="clip0_7_1642">
<rect width="24" height="24" fill="white"/>
</clipPath>
</defs>
</svg>
