<svg width="24" height="24" viewBox="0 0 24 24" fill="none" xmlns="http://www.w3.org/2000/svg">
<path d="M18 17H5C3.34315 17 2 15.6569 2 14C2 12.6925 2.83649 11.5803 4.00352 11.1695C4.00118 11.1133 4 11.0568 4 11C4 8.79086 5.79086 7 8 7C8.06894 7 8.13748 7.00174 8.20557 7.00519C8.85678 4.69403 10.9806 3 13.5 3C16.5376 3 19 5.46243 19 8.5C19 8.70871 18.9884 8.9147 18.9657 9.11736C20.7083 9.54938 22 11.1238 22 13C22 15.2091 20.2091 17 18 17Z" fill="white"/>
<path d="M8.55172 22L8.44138 20.7778L9.44828 21.4861L10 20.5139L8.89655 20L10 19.4861L9.44828 18.5139L8.44138 19.2222L8.55172 18H7.44828L7.55862 19.2222L6.55172 18.5139L6 19.4861L7.10345 20L6 20.5139L6.55172 21.4861L7.55862 20.7778L7.44828 22H8.55172Z" fill="white"/>
<path d="M11.5 18.5C11.2239 18.5 11 18.7239 11 19C11 19.2761 11.2239 19.5 11.5 19.5H17C17.2761 19.5 17.5 19.2761 17.5 19C17.5 18.7239 17.2761 18.5 17 18.5H11.5Z" fill="white"/>
<path d="M11.5 20.5C11.2239 20.5 11 20.7239 11 21C11 21.2761 11.2239 21.5 11.5 21.5H16C16.2761 21.5 16.5 21.2761 16.5 21C16.5 20.7239 16.2761 20.5 16 20.5H11.5Z" fill="white"/>
</svg>
