<svg width="24" height="24" viewBox="0 0 24 24" fill="none" xmlns="http://www.w3.org/2000/svg">
<path d="M18 17H5C3.34315 17 2 15.6569 2 14C2 12.6925 2.83649 11.5803 4.00352 11.1695C4.00118 11.1133 4 11.0568 4 11C4 8.79086 5.79086 7 8 7C8.06894 7 8.13748 7.00174 8.20557 7.00519C8.85678 4.69403 10.9806 3 13.5 3C16.5376 3 19 5.46243 19 8.5C19 8.70871 18.9884 8.9147 18.9657 9.11736C20.7083 9.54938 22 11.1238 22 13C22 15.2091 20.2091 17 18 17Z" fill="white"/>
<path d="M8.5 18.5C8.5 18.2239 8.72386 18 9 18H19C19.2761 18 19.5 18.2239 19.5 18.5C19.5 18.7761 19.2761 19 19 19H9C8.72386 19 8.5 18.7761 8.5 18.5Z" fill="white"/>
<path d="M7.5 20.5C7.5 20.2239 7.72386 20 8 20H19C19.2761 20 19.5 20.2239 19.5 20.5C19.5 20.7761 19.2761 21 19 21H8C7.72386 21 7.5 20.7761 7.5 20.5Z" fill="white"/>
<path d="M7.1382 18.7236L6 21L4.8618 18.7236C4.69558 18.3912 4.93733 18 5.30902 18H6.69098C7.06267 18 7.30442 18.3912 7.1382 18.7236Z" fill="white"/>
</svg>
