<svg width="24" height="24" viewBox="0 0 24 24" fill="none" xmlns="http://www.w3.org/2000/svg">
<path d="M5 17H18C20.2091 17 22 15.2091 22 13C22 11.1238 20.7083 9.54938 18.9657 9.11736C18.9884 8.9147 19 8.70871 19 8.5C19 5.46243 16.5376 3 13.5 3C10.9806 3 8.85678 4.69403 8.20557 7.00519C8.13748 7.00174 8.06894 7 8 7C5.79086 7 4 8.79086 4 11C4 11.0568 4.00118 11.1133 4.00352 11.1695C2.83649 11.5803 2 12.6925 2 14C2 15.6569 3.34315 17 5 17Z" fill="white"/>
<path d="M9.34189 18C9.66565 18 9.89427 18.3172 9.79189 18.6243L9.10811 20.6757C9.04355 20.8694 8.86229 21 8.65811 21C8.33435 21 8.10573 20.6828 8.20811 20.3757L8.89189 18.3243C8.95645 18.1306 9.13772 18 9.34189 18Z" fill="white"/>
<path d="M11.3419 18C11.1377 18 10.9565 18.1306 10.8919 18.3243L10.2081 20.3757C10.1057 20.6828 10.3343 21 10.6581 21C10.8623 21 11.0435 20.8694 11.1081 20.6757L11.7919 18.6243C11.8943 18.3172 11.6657 18 11.3419 18Z" fill="white"/>
<path d="M13.3419 18C13.6657 18 13.8943 18.3172 13.7919 18.6243L13.1081 20.6757C13.0435 20.8694 12.8623 21 12.6581 21C12.3343 21 12.1057 20.6828 12.2081 20.3757L12.8919 18.3243C12.9565 18.1306 13.1377 18 13.3419 18Z" fill="white"/>
<path d="M15.3419 18C15.6657 18 15.8943 18.3172 15.7919 18.6243L15.1081 20.6757C15.0435 20.8694 14.8623 21 14.6581 21C14.3343 21 14.1057 20.6828 14.2081 20.3757L14.8919 18.3243C14.9565 18.1306 15.1377 18 15.3419 18Z" fill="white"/>
</svg>
