<svg width="24" height="24" viewBox="0 0 24 24" fill="none" xmlns="http://www.w3.org/2000/svg">
<path d="M5 17H18C20.2091 17 22 15.2091 22 13C22 11.1238 20.7083 9.54938 18.9657 9.11736C18.9884 8.9147 19 8.70871 19 8.5C19 5.46243 16.5376 3 13.5 3C10.9806 3 8.85678 4.69403 8.20557 7.00519C8.13748 7.00174 8.06894 7 8 7C5.79086 7 4 8.79086 4 11C4 11.0568 4.00118 11.1133 4.00352 11.1695C2.83649 11.5803 2 12.6925 2 14C2 15.6569 3.34315 17 5 17Z" fill="white"/>
<path d="M6.30902 18H7.69098C8.06267 18 8.30442 18.3912 8.1382 18.7236L7 21L5.8618 18.7236C5.69558 18.3912 5.93733 18 6.30902 18Z" fill="white"/>
<path d="M9.39189 18.3243L8.70811 20.3757C8.60573 20.6828 8.83435 21 9.15811 21C9.36228 21 9.54355 20.8694 9.60811 20.6757L10.2919 18.6243C10.3943 18.3172 10.1657 18 9.84189 18C9.63771 18 9.45645 18.1306 9.39189 18.3243Z" fill="white"/>
<path d="M10.7081 20.3757L11.3919 18.3243C11.4565 18.1306 11.6377 18 11.8419 18C12.1657 18 12.3943 18.3172 12.2919 18.6243L11.6081 20.6757C11.5435 20.8694 11.3623 21 11.1581 21C10.8343 21 10.6057 20.6828 10.7081 20.3757Z" fill="white"/>
<path d="M12.7081 20.3757L13.3919 18.3243C13.4565 18.1306 13.6377 18 13.8419 18C14.1657 18 14.3943 18.3172 14.2919 18.6243L13.6081 20.6757C13.5435 20.8694 13.3623 21 13.1581 21C12.8343 21 12.6057 20.6828 12.7081 20.3757Z" fill="white"/>
<path d="M14.7081 20.3757L15.3919 18.3243C15.4565 18.1306 15.6377 18 15.8419 18C16.1657 18 16.3943 18.3172 16.2919 18.6243L15.6081 20.6757C15.5435 20.8694 15.3623 21 15.1581 21C14.8343 21 14.6057 20.6828 14.7081 20.3757Z" fill="white"/>
<path d="M17.3919 18.3243L16.7081 20.3757C16.6057 20.6828 16.8343 21 17.1581 21C17.3623 21 17.5435 20.8694 17.6081 20.6757L18.2919 18.6243C18.3943 18.3172 18.1657 18 17.8419 18C17.6377 18 17.4565 18.1306 17.3919 18.3243Z" fill="white"/>
</svg>
