<svg width="24" height="24" viewBox="0 0 24 24" fill="none" xmlns="http://www.w3.org/2000/svg">
<g clip-path="url(#clip0_7_1672)">
<path d="M3.10667 2.13333L3.36667 2.39333C3.62667 2.64667 3.62667 3.07333 3.36667 3.32667L3.36 3.33333C3.1 3.59333 2.68667 3.59333 2.42667 3.33333L2.16667 3.07333C1.90667 2.82 1.90667 2.4 2.16667 2.14L2.17333 2.13333C2.42667 1.88 2.84667 1.87333 3.10667 2.13333Z" fill="white"/>
<path d="M0.66 6.63333H1.34C1.70667 6.63333 2 6.92667 2 7.3V7.30667C2 7.67333 1.70667 7.96667 1.33333 7.96H0.66C0.293333 7.96 0 7.66667 0 7.3V7.29333C0 6.92667 0.293333 6.63333 0.66 6.63333Z" fill="white"/>
<path d="M7.33333 0H7.34C7.70667 0 8 0.293333 8 0.66V1.30667C8 1.67333 7.70667 1.96667 7.33333 1.96H7.32667C6.96 1.96 6.66667 1.66667 6.66667 1.3V0.66C6.66667 0.293333 6.96 0 7.33333 0Z" fill="white"/>
<path d="M11.56 2.13333C11.82 1.88 12.24 1.88 12.5 2.14C12.76 2.4 12.76 2.81333 12.5 3.07333L12.24 3.33333C11.9867 3.59333 11.5667 3.59333 11.3067 3.33333L11.3 3.32667C11.04 3.07333 11.04 2.65333 11.3 2.39333L11.56 2.13333Z" fill="white"/>
<path d="M3.33333 7.3C3.33333 5.09333 5.12667 3.3 7.33333 3.3C8.84799 3.3 10.1679 4.14492 10.8468 5.38847C10.0727 6.07673 9.49435 6.98028 9.20557 8.00519C9.13748 8.00175 9.06894 8 9 8C7.24809 8 5.75923 9.12627 5.21798 10.6942C4.08683 9.98706 3.33333 8.73036 3.33333 7.3Z" fill="white"/>
<path d="M3.10667 12.46C2.84667 12.72 2.42667 12.72 2.16667 12.46C1.90667 12.2 1.90667 11.7867 2.16 11.52L2.42 11.26C2.68 11 3.1 11 3.36 11.26L3.36667 11.2667C3.62 11.52 3.62667 11.94 3.36667 12.2L3.10667 12.46Z" fill="white"/>
<path d="M20 19H7C5.34315 19 4 17.6569 4 16C4 14.6925 4.83649 13.5803 6.00352 13.1695C6.00118 13.1133 6 13.0568 6 13C6 10.7909 7.79086 9 10 9C10.0689 9 10.1375 9.00175 10.2056 9.00519C10.8568 6.69403 12.9806 5 15.5 5C18.5376 5 21 7.46243 21 10.5C21 10.7087 20.9884 10.9147 20.9657 11.1174C22.7083 11.5494 24 13.1238 24 15C24 17.2091 22.2091 19 20 19Z" fill="white"/>
<path d="M9.41459 20C9.91327 20 10.2376 20.5248 10.0146 20.9708L8.68541 23.6292C8.57178 23.8564 8.3395 24 8.08541 24C7.58673 24 7.2624 23.4752 7.48541 23.0292L8.81459 20.3708C8.92822 20.1436 9.1605 20 9.41459 20Z" fill="white"/>
<path d="M12.4146 20C12.9133 20 13.2376 20.5248 13.0146 20.9708L11.6854 23.6292C11.5718 23.8564 11.3395 24 11.0854 24C10.5867 24 10.2624 23.4752 10.4854 23.0292L11.8146 20.3708C11.9282 20.1436 12.1605 20 12.4146 20Z" fill="white"/>
<path d="M18.4146 20C18.1605 20 17.9282 20.1436 17.8146 20.3708L16.4854 23.0292C16.2624 23.4752 16.5867 24 17.0854 24C17.3395 24 17.5718 23.8564 17.6854 23.6292L19.0146 20.9708C19.2376 20.5248 18.9133 20 18.4146 20Z" fill="white"/>
<path d="M15.4146 20C15.9133 20 16.2376 20.5248 16.0146 20.9708L14.6854 23.6292C14.5718 23.8564 14.3395 24 14.0854 24C13.5867 24 13.2624 23.4752 13.4854 23.0292L14.8146 20.3708C14.9282 20.1436 15.1605 20 15.4146 20Z" fill="white"/>
</g>
<defs>
<clipPath id="clip0_7_1672">
<rect width="24" height="24" fill="white"/>
</clipPath>
</defs>
</svg>
