<svg width="24" height="24" viewBox="0 0 24 24" fill="none" xmlns="http://www.w3.org/2000/svg">
<path d="M5 17H18C20.2091 17 22 15.2091 22 13C22 11.1238 20.7083 9.54938 18.9657 9.11736C18.9884 8.9147 19 8.70871 19 8.5C19 5.46243 16.5376 3 13.5 3C10.9806 3 8.85678 4.69403 8.20557 7.00519C8.13748 7.00174 8.06894 7 8 7C5.79086 7 4 8.79086 4 11C4 11.0568 4.00118 11.1133 4.00352 11.1695C2.83649 11.5803 2 12.6925 2 14C2 15.6569 3.34315 17 5 17Z" fill="white"/>
<path d="M7.41459 18C7.1605 18 6.92822 18.1436 6.81459 18.3708L5.48541 21.0292C5.2624 21.4752 5.58673 22 6.08541 22C6.3395 22 6.57178 21.8564 6.68541 21.6292L8.01459 18.9708C8.2376 18.5248 7.91327 18 7.41459 18Z" fill="white"/>
<path d="M10.4146 18C10.9133 18 11.2376 18.5248 11.0146 18.9708L9.68541 21.6292C9.57178 21.8564 9.3395 22 9.08541 22C8.58673 22 8.2624 21.4752 8.48541 21.0292L9.81459 18.3708C9.92822 18.1436 10.1605 18 10.4146 18Z" fill="white"/>
<path d="M16.4146 18C16.9133 18 17.2376 18.5248 17.0146 18.9708L15.6854 21.6292C15.5718 21.8564 15.3395 22 15.0854 22C14.5867 22 14.2624 21.4752 14.4854 21.0292L15.8146 18.3708C15.9282 18.1436 16.1605 18 16.4146 18Z" fill="white"/>
<path d="M13.4146 18C13.9133 18 14.2376 18.5248 14.0146 18.9708L12.6854 21.6292C12.5718 21.8564 12.3395 22 12.0854 22C11.5867 22 11.2624 21.4752 11.4854 21.0292L12.8146 18.3708C12.9282 18.1436 13.1605 18 13.4146 18Z" fill="white"/>
</svg>
