<svg width="24" height="24" viewBox="0 0 24 24" fill="none" xmlns="http://www.w3.org/2000/svg">
<path d="M5 17H18C20.2091 17 22 15.2091 22 13C22 11.1238 20.7083 9.54938 18.9657 9.11736C18.9884 8.9147 19 8.70871 19 8.5C19 5.46243 16.5376 3 13.5 3C10.9806 3 8.85678 4.69403 8.20557 7.00519C8.13748 7.00174 8.06894 7 8 7C5.79086 7 4 8.79086 4 11C4 11.0568 4.00118 11.1133 4.00352 11.1695C2.83649 11.5803 2 12.6925 2 14C2 15.6569 3.34315 17 5 17Z" fill="white"/>
<path d="M8.19098 18H5.80902C5.43733 18 5.19558 18.3912 5.3618 18.7236L7 22L8.6382 18.7236C8.80442 18.3912 8.56267 18 8.19098 18Z" fill="white"/>
<path d="M8.98541 21.0292L10.3146 18.3708C10.4282 18.1436 10.6605 18 10.9146 18C11.4133 18 11.7376 18.5248 11.5146 18.9708L10.1854 21.6292C10.0718 21.8564 9.8395 22 9.58541 22C9.08673 22 8.7624 21.4752 8.98541 21.0292Z" fill="white"/>
<path d="M14.9854 21.0292L16.3146 18.3708C16.4282 18.1436 16.6605 18 16.9146 18C17.4133 18 17.7376 18.5248 17.5146 18.9708L16.1854 21.6292C16.0718 21.8564 15.8395 22 15.5854 22C15.0867 22 14.7624 21.4752 14.9854 21.0292Z" fill="white"/>
<path d="M11.9854 21.0292L13.3146 18.3708C13.4282 18.1436 13.6605 18 13.9146 18C14.4133 18 14.7376 18.5248 14.5146 18.9708L13.1854 21.6292C13.0718 21.8564 12.8395 22 12.5854 22C12.0867 22 11.7624 21.4752 11.9854 21.0292Z" fill="white"/>
</svg>
