<svg width="24" height="24" viewBox="0 0 24 24" fill="none" xmlns="http://www.w3.org/2000/svg">
<path d="M5 17H18C20.2091 17 22 15.2091 22 13C22 11.1238 20.7083 9.54938 18.9657 9.11736C18.9884 8.9147 19 8.70871 19 8.5C19 5.46243 16.5376 3 13.5 3C10.9806 3 8.85678 4.69403 8.20557 7.00519C8.13748 7.00174 8.06894 7 8 7C5.79086 7 4 8.79086 4 11C4 11.0568 4.00118 11.1133 4.00352 11.1695C2.83649 11.5803 2 12.6925 2 14C2 15.6569 3.34315 17 5 17Z" fill="white"/>
<path d="M12.5517 22H11.4483L11.5586 20.7778L10.5517 21.4861L10 20.5139L11.1034 20L10 19.4861L10.5517 18.5139L11.5586 19.2222L11.4483 18H12.5517L12.4414 19.2222L13.4483 18.5139L14 19.4861L12.8966 20L14 20.5139L13.4483 21.4861L12.4414 20.7778L12.5517 22Z" fill="white"/>
</svg>
