<svg width="24" height="24" viewBox="0 0 24 24" fill="none" xmlns="http://www.w3.org/2000/svg">
<g clip-path="url(#clip0_7_1690)">
<path d="M3.36667 2.39333L3.10667 2.13333C2.84667 1.87333 2.42667 1.88 2.17333 2.13333L2.16667 2.14C1.90667 2.4 1.90667 2.82 2.16667 3.07333L2.42667 3.33333C2.68667 3.59333 3.1 3.59333 3.36 3.33333L3.36667 3.32667C3.62667 3.07333 3.62667 2.64667 3.36667 2.39333Z" fill="white"/>
<path d="M1.34 6.63333H0.66C0.293333 6.63333 0 6.92667 0 7.29333V7.3C0 7.66667 0.293333 7.96 0.66 7.96H1.33333C1.70667 7.96667 2 7.67333 2 7.30667V7.3C2 6.92667 1.70667 6.63333 1.34 6.63333Z" fill="white"/>
<path d="M7.34 0H7.33333C6.96 0 6.66667 0.293333 6.66667 0.66V1.3C6.66667 1.66667 6.96 1.96 7.32667 1.96H7.33333C7.70667 1.96667 8 1.67333 8 1.30667V0.66C8 0.293333 7.70667 0 7.34 0Z" fill="white"/>
<path d="M12.5 2.14C12.24 1.88 11.82 1.88 11.56 2.13333L11.3 2.39333C11.04 2.65333 11.04 3.07333 11.3 3.32667L11.3067 3.33333C11.5667 3.59333 11.9867 3.59333 12.24 3.33333L12.5 3.07333C12.76 2.81333 12.76 2.4 12.5 2.14Z" fill="white"/>
<path d="M7.33333 3.3C5.12667 3.3 3.33333 5.09333 3.33333 7.3C3.33333 8.73036 4.08683 9.98706 5.21798 10.6942C5.75923 9.12627 7.24809 8 9 8C9.06894 8 9.13748 8.00175 9.20557 8.00519C9.49435 6.98028 10.0727 6.07673 10.8468 5.38847C10.1679 4.14492 8.84799 3.3 7.33333 3.3Z" fill="white"/>
<path d="M2.16667 12.46C2.42667 12.72 2.84667 12.72 3.10667 12.46L3.36667 12.2C3.62667 11.94 3.62 11.52 3.36667 11.2667L3.36 11.26C3.1 11 2.68 11 2.42 11.26L2.16 11.52C1.90667 11.7867 1.90667 12.2 2.16667 12.46Z" fill="white"/>
<path d="M7 19H20C22.2091 19 24 17.2091 24 15C24 13.1238 22.7083 11.5494 20.9657 11.1174C20.9884 10.9147 21 10.7087 21 10.5C21 7.46243 18.5376 5 15.5 5C12.9806 5 10.8568 6.69403 10.2056 9.00519C10.1375 9.00175 10.0689 9 10 9C7.79086 9 6 10.7909 6 13C6 13.0568 6.00118 13.1133 6.00352 13.1695C4.83649 13.5803 4 14.6925 4 16C4 17.6569 5.34315 19 7 19Z" fill="white"/>
<path d="M10.4483 24H11.5517L11.4414 22.7778L12.4483 23.4861L13 22.5139L11.8966 22L13 21.4861L12.4483 20.5139L11.4414 21.2222L11.5517 20H10.4483L10.5586 21.2222L9.55172 20.5139L9 21.4861L10.1034 22L9 22.5139L9.55172 23.4861L10.5586 22.7778L10.4483 24Z" fill="white"/>
<path d="M17.5517 24H16.4483L16.5586 22.7778L15.5517 23.4861L15 22.5139L16.1034 22L15 21.4861L15.5517 20.5139L16.5586 21.2222L16.4483 20H17.5517L17.4414 21.2222L18.4483 20.5139L19 21.4861L17.8966 22L19 22.5139L18.4483 23.4861L17.4414 22.7778L17.5517 24Z" fill="white"/>
</g>
<defs>
<clipPath id="clip0_7_1690">
<rect width="24" height="24" fill="white"/>
</clipPath>
</defs>
</svg>
