<svg width="24" height="24" viewBox="0 0 24 24" fill="none" xmlns="http://www.w3.org/2000/svg">
<path d="M18 17H17.0089L17.8682 15.4961C18.2492 14.8295 17.7678 14 17 14H16V10C16 8.97454 14.6405 8.61351 14.1318 9.50386L9.84825 17H5C3.34315 17 2 15.6569 2 14C2 12.6925 2.83649 11.5803 4.00352 11.1695C4.00118 11.1133 4 11.0568 4 11C4 8.79086 5.79086 7 8 7C8.06894 7 8.13748 7.00174 8.20557 7.00519C8.85678 4.69403 10.9806 3 13.5 3C16.5376 3 19 5.46243 19 8.5C19 8.70871 18.9884 8.9147 18.9657 9.11736C20.7083 9.54938 22 11.1238 22 13C22 15.2091 20.2091 17 18 17Z" fill="white"/>
<path d="M11 17H13V22L17 15H15V10L11 17Z" fill="white"/>
<path d="M9.55172 22H8.44828L8.55862 20.7778L7.55172 21.4861L7 20.5139L8.10345 20L7 19.4861L7.55172 18.5139L8.55862 19.2222L8.44828 18H9.55172L9.44138 19.2222L10.4483 18.5139L11 19.4861L9.89655 20L11 20.5139L10.4483 21.4861L9.44138 20.7778L9.55172 22Z" fill="white"/>
</svg>
