<svg xmlns="http://www.w3.org/2000/svg" xmlns:xlink="http://www.w3.org/1999/xlink" version="1.1" width="256" height="256" viewBox="0 0 256 256" xml:space="preserve">

<defs>
</defs>
<g style="stroke: none; stroke-width: 0; stroke-dasharray: none; stroke-linecap: butt; stroke-linejoin: miter; stroke-miterlimit: 10; fill: none; fill-rule: nonzero; opacity: 1;" transform="translate(1.4065934065934016 1.4065934065934016) scale(2.81 2.81)" >
	<path d="M 47.045 1.824 l -1.289 -1.487 c -0.38 -0.44 -1.133 -0.44 -1.513 0 l -1.29 1.488 c -11.815 13.62 -29.669 34.203 -29.669 56.467 c 0 17.488 14.227 31.716 31.715 31.716 c 17.488 0 31.716 -14.227 31.716 -31.716 C 76.716 36.028 58.86 15.444 47.045 1.824 z M 45.528 75.046 c -10.072 0 -18.266 -8.194 -18.266 -18.266 c 0 -0.553 0.448 -1 1 -1 s 1 0.447 1 1 c 0 8.968 7.297 16.266 16.265 16.266 c 0.553 0 1 0.447 1 1 S 46.081 75.046 45.528 75.046 z" style="stroke: none; stroke-width: 1; stroke-dasharray: none; stroke-linecap: butt; stroke-linejoin: miter; stroke-miterlimit: 10; fill: rgb(0,0,0); fill-rule: nonzero; opacity: 1;" transform=" matrix(1 0 0 1 0 0) " stroke-linecap="round" />
</g>
</svg>