<svg width="24" height="24" viewBox="0 0 24 24" fill="none" xmlns="http://www.w3.org/2000/svg">
<path d="M5 17H18C20.2091 17 22 15.2091 22 13C22 11.1238 20.7083 9.54938 18.9657 9.11736C18.9884 8.9147 19 8.70871 19 8.5C19 5.46243 16.5376 3 13.5 3C10.9806 3 8.85678 4.69403 8.20557 7.00519C8.13748 7.00174 8.06894 7 8 7C5.79086 7 4 8.79086 4 11C4 11.0568 4.00118 11.1133 4.00352 11.1695C2.83649 11.5803 2 12.6925 2 14C2 15.6569 3.34315 17 5 17Z" fill="white"/>
<path d="M11.5517 22H10.4483L10.5586 20.7778L9.55172 21.4861L9 20.5139L10.1034 20L9 19.4861L9.55172 18.5139L10.5586 19.2222L10.4483 18H11.5517L11.4414 19.2222L12.4483 18.5139L13 19.4861L11.8966 20L13 20.5139L12.4483 21.4861L11.4414 20.7778L11.5517 22Z" fill="white"/>
<path d="M5.44828 22H6.55172L6.44138 20.7778L7.44828 21.4861L8 20.5139L6.89655 20L8 19.4861L7.44828 18.5139L6.44138 19.2222L6.55172 18H5.44828L5.55862 19.2222L4.55172 18.5139L4 19.4861L5.10345 20L4 20.5139L4.55172 21.4861L5.55862 20.7778L5.44828 22Z" fill="white"/>
<path d="M14.5 18.5C14.2239 18.5 14 18.7239 14 19C14 19.2761 14.2239 19.5 14.5 19.5H20C20.2761 19.5 20.5 19.2761 20.5 19C20.5 18.7239 20.2761 18.5 20 18.5H14.5Z" fill="white"/>
<path d="M14.5 20.5C14.2239 20.5 14 20.7239 14 21C14 21.2761 14.2239 21.5 14.5 21.5H19C19.2761 21.5 19.5 21.2761 19.5 21C19.5 20.7239 19.2761 20.5 19 20.5H14.5Z" fill="white"/>
</svg>
