<svg width="24" height="24" viewBox="0 0 24 24" fill="none" xmlns="http://www.w3.org/2000/svg">
<path d="M18 17H5C3.34315 17 2 15.6569 2 14C2 12.6925 2.83649 11.5803 4.00352 11.1695C4.00118 11.1133 4 11.0568 4 11C4 8.79086 5.79086 7 8 7C8.06894 7 8.13748 7.00174 8.20557 7.00519C8.85678 4.69403 10.9806 3 13.5 3C16.5376 3 19 5.46243 19 8.5C19 8.70871 18.9884 8.9147 18.9657 9.11736C20.7083 9.54938 22 11.1238 22 13C22 15.2091 20.2091 17 18 17Z" fill="white"/>
<path d="M9.01459 18.9708C9.2376 18.5248 8.91327 18 8.41459 18C8.1605 18 7.92822 18.1436 7.81459 18.3708L6.48541 21.0292C6.2624 21.4752 6.58673 22 7.08541 22C7.3395 22 7.57178 21.8564 7.68541 21.6292L9.01459 18.9708Z" fill="white"/>
<path d="M12.0146 18.9708C12.2376 18.5248 11.9133 18 11.4146 18C11.1605 18 10.9282 18.1436 10.8146 18.3708L9.48541 21.0292C9.2624 21.4752 9.58673 22 10.0854 22C10.3395 22 10.5718 21.8564 10.6854 21.6292L12.0146 18.9708Z" fill="white"/>
<path d="M15.5517 22H14.4483L14.5586 20.7778L13.5517 21.4861L13 20.5139L14.1034 20L13 19.4861L13.5517 18.5139L14.5586 19.2222L14.4483 18H15.5517L15.4414 19.2222L16.4483 18.5139L17 19.4861L15.8966 20L17 20.5139L16.4483 21.4861L15.4414 20.7778L15.5517 22Z" fill="white"/>
</svg>
